<?xml version="1.0"?>
<svg xmlns="http://www.w3.org/2000/svg" xmlns:xlink="http://www.w3.org/1999/xlink" xmlns:svgjs="http://svgjs.com/svgjs" version="1.1" width="512" height="512" x="0" y="0" viewBox="0 0 50 50" style="enable-background:new 0 0 512 512" xml:space="preserve" class=""><g><g xmlns="http://www.w3.org/2000/svg" id="Icons"><path d="m25 45a14 14 0 0 0 14-14v-12a14 14 0 0 0 -28 0v12a14 14 0 0 0 14 14zm-12-26a12 12 0 0 1 24 0v12a12 12 0 0 1 -24 0z" fill="#ffffff" data-original="#000000" class=""/><path d="m24 24.5h.09l.2.21a1 1 0 0 0 1.42 0l.2-.21h.09v-.09l5.71-5.7-1.42-1.42-4.29 4.3v-10.59h-2v10.59l-4.29-4.3-1.42 1.42 5.71 5.7z" fill="#ffffff" data-original="#000000" class=""/></g></g></svg>
