<?xml version="1.0" encoding="utf-8"?>
<!-- Generator: Adobe Illustrator 27.1.1, SVG Export Plug-In . SVG Version: 6.00 Build 0)  -->
<svg version="1.1" id="Layer_1" xmlns:serif="http://www.serif.com/"
	 xmlns="http://www.w3.org/2000/svg" xmlns:xlink="http://www.w3.org/1999/xlink" x="0px" y="0px" viewBox="0 0 32 32"
	 style="enable-background:new 0 0 32 32;" xml:space="preserve">
<style type="text/css">
	.st0{fill:#F37A20;}
</style>
<g id="balance_wallet_payment_cash">
	<path class="st0" d="M28,15h-7c-2.2,0-4,1.8-4,4s1.8,4,4,4h4v3c0,0.5-0.5,1-1,1H8c-1.6,0-3-1.4-3-3V9c0-1.6,1.4-3,3-3h2
		c0.5,0,1-0.5,1-1s-0.5-1-1-1H8C5.3,4,3,6.3,3,9v15c0,2.7,2.3,5,5,5h16c1.6,0,3-1.4,3-3v-3h1c0.5,0,1-0.5,1-1v-6
		C29,15.5,28.5,15,28,15z M27,21h-6c-1.1,0-2-0.9-2-2s0.9-2,2-2h6V21z"/>
	<path class="st0" d="M7.6,8.1C6.5,8.6,6.9,10,8,10h16c0.5,0,1,0.5,1,1v1c0,0.5,0.5,1,1,1s1-0.5,1-1v-1c0-0.8-0.3-1.6-0.9-2.1
		C25.6,8.3,24.8,8,24,8h-0.3l-1.8-4.4c-0.2-0.5-0.8-0.8-1.3-0.6L7.6,8.1z M21.5,8h-8.1l7.1-2.7L21.5,8z"/>
</g>
</svg>
