<svg xmlns="http://www.w3.org/2000/svg" fill-rule="evenodd" stroke-linejoin="round" stroke-miterlimit="2" clip-rule="evenodd" viewBox="0 0 32 33"><g transform="translate(0 .2)"><rect width="32" height="32" fill="none"/><path d="M94,366.442L94,377.2C94,377.995 93.684,378.759 93.121,379.321C92.559,379.884 91.796,380.2 91,380.2C87.537,380.2 80.463,380.2 77,380.2C76.204,380.2 75.441,379.884 74.879,379.321C74.316,378.759 74,377.996 74,377.2C74,372.357 74,360.043 74,355.2C74,354.404 74.316,353.641 74.879,353.079C75.441,352.516 76.204,352.2 77,352.2C80.463,352.2 87.537,352.2 91,352.2C91.796,352.2 92.559,352.516 93.121,353.079C93.684,353.641 94,354.404 94,355.2L94,358.287C94.684,358.078 95.459,358.244 96,358.786C96.432,359.218 96.982,359.768 97.414,360.2C98.195,360.981 98.195,362.247 97.414,363.028L94,366.442ZM87.641,364.317L92,359.957L92,355.2C92,354.935 91.895,354.68 91.707,354.493C91.52,354.305 91.265,354.2 91,354.2C87.537,354.2 80.463,354.2 77,354.2C76.735,354.2 76.48,354.305 76.293,354.493C76.105,354.68 76,354.935 76,355.2C76,360.043 76,372.357 76,377.2C76,377.465 76.105,377.719 76.293,377.907C76.48,378.094 76.735,378.2 77,378.2C80.463,378.2 87.537,378.2 91,378.2C91.265,378.2 91.52,378.094 91.707,377.907C91.895,377.719 92,377.465 92,377.2L92,368.442L85.539,374.904C84.266,376.176 82.642,377.038 80.875,377.377C80.268,377.493 79.785,377.586 79.785,377.586C79.459,377.648 79.124,377.545 78.889,377.311C78.655,377.076 78.552,376.741 78.614,376.415C78.614,376.415 78.707,375.932 78.823,375.325C79.162,373.558 80.024,371.934 81.296,370.661L85.757,366.2L79,366.2C78.448,366.2 78,365.752 78,365.2C78,364.648 78.448,364.2 79,364.2L87.172,364.2C87.341,364.2 87.501,364.242 87.641,364.317ZM82.433,372.369C81.68,373.215 81.143,374.231 80.869,375.33C81.969,375.057 82.985,374.52 83.831,373.767L82.433,372.369ZM83.839,370.947L85.253,372.361L96,361.614L94.586,360.2L83.839,370.947ZM79,362.2L89,362.2C89.552,362.2 90,361.752 90,361.2C90,360.648 89.552,360.2 89,360.2L79,360.2C78.448,360.2 78,360.648 78,361.2C78,361.752 78.448,362.2 79,362.2ZM81,358.2L87,358.2C87.552,358.2 88,357.752 88,357.2C88,356.648 87.552,356.2 87,356.2L81,356.2C80.448,356.2 80,356.648 80,357.2C80,357.752 80.448,358.2 81,358.2Z" transform="translate(-70 -350.2)"/></g></svg>