<svg xmlns="http://www.w3.org/2000/svg" version="1.1" xmlns:xlink="http://www.w3.org/1999/xlink" xmlns:svgjs="http://svgjs.com/svgjs" width="512" height="512" x="0" y="0" viewBox="0 0 512 512" style="enable-background:new 0 0 512 512" xml:space="preserve"><g><path d="M359.575 169.898h7.938v48.818c0 5.523 4.477 10 10 10s10-4.477 10-10v-48.818h7.938c5.523 0 10-4.477 10-10V78.726c0-5.523-4.477-10-10-10h-7.938V19.909c0-5.523-4.477-10-10-10s-10 4.477-10 10v48.817h-7.938c-5.523 0-10 4.477-10 10v81.172c0 5.523 4.477 10 10 10zm10-81.172h15.875v61.172h-15.875zm-91.009 161.267h7.938v48.817c0 5.523 4.477 10 10 10s10-4.477 10-10v-48.817h7.938c5.523 0 10-4.477 10-10v-81.172c0-5.523-4.477-10-10-10h-7.938v-48.817c0-5.523-4.477-10-10-10s-10 4.477-10 10v48.817h-7.938c-5.523 0-10 4.477-10 10v81.172c0 5.523 4.477 10 10 10zm10-81.172h15.875v61.172h-15.875zm-91.007 1.077h7.937v48.818c0 5.523 4.477 10 10 10s10-4.477 10-10v-48.818h7.938c5.523 0 10-4.477 10-10V78.726c0-5.523-4.477-10-10-10h-7.938V19.909c0-5.523-4.477-10-10-10s-10 4.477-10 10v48.817h-7.937c-5.523 0-10 4.477-10 10v81.172c0 5.523 4.477 10 10 10zm10-81.172h15.875v61.172h-15.875zM106.55 158.821v81.172c0 5.523 4.477 10 10 10h7.938v48.817c0 5.523 4.477 10 10 10s10-4.477 10-10v-48.817h7.938c5.523 0 10-4.477 10-10v-81.172c0-5.523-4.477-10-10-10h-7.938v-48.817c0-5.523-4.477-10-10-10s-10 4.477-10 10v48.817h-7.938c-5.523 0-10 4.477-10 10zm20 10h15.875v61.172H126.55zM476.054 57.533h-41.279c-5.523 0-10 4.477-10 10s4.477 10 10 10h41.279c8.792 0 15.946 7.156 15.946 15.951v246.855H20V102.854c0-13.962 11.359-25.321 25.321-25.321h55.704c5.523 0 10-4.477 10-10s-4.477-10-10-10H45.321C20.331 57.533 0 77.863 0 102.854v282.422c0 24.99 20.331 45.321 45.321 45.321h140.435c1.711 15.303.648 33.611-2.956 51.494h-56.338c-5.523 0-10 4.477-10 10s4.477 10 10 10h64.315l.049.003.069-.003h129.783l.07.003.046-.003h64.749c5.523 0 10-4.477 10-10s-4.477-10-10-10h-56.891c-3.926-18.051-5.191-36.366-3.52-51.494h141.547c24.99 0 45.321-20.331 45.321-45.321V93.484c0-19.824-16.125-35.951-35.946-35.951zM308.237 482.091H203.155c3.226-17.77 4.197-35.841 2.713-51.494h99.157c-1.435 15.524-.289 33.594 3.212 51.494zm158.442-71.494H45.321C31.359 410.597 20 399.238 20 385.276v-24.937h472v24.937c0 13.962-11.359 25.321-25.321 25.321z" fill="#fd7b11" data-original="#000000"></path></g></svg>