<svg xmlns="http://www.w3.org/2000/svg" version="1.1" xmlns:xlink="http://www.w3.org/1999/xlink" xmlns:svgjs="http://svgjs.com/svgjs" width="512" height="512" x="0" y="0" viewBox="0 0 512.345 512.345" style="enable-background:new 0 0 512 512" xml:space="preserve"><g><path d="M401.239 226.284V94.018h16.725a17.204 17.204 0 0 0 15.804-10.24 17.485 17.485 0 0 0-2.662-18.901L380.162 6.21a17.664 17.664 0 0 0-26.069-.042l-50.987 58.709a17.492 17.492 0 0 0-2.662 18.901 17.195 17.195 0 0 0 15.804 10.24h16.725v132.267c-71.407 17.287-118.616 85.229-109.912 158.182s70.575 127.879 144.045 127.879 135.34-54.927 144.045-127.879c8.705-72.953-38.505-140.895-109.912-158.183zM341.506 76.951h-25.387l-.085-.853 51.2-58.718 50.944 58.718-.213.853h-25.259a8.533 8.533 0 0 0-8.533 8.533V223.11a133.91 133.91 0 0 0-34.133 0V85.484a8.535 8.535 0 0 0-8.534-8.533zm25.6 418.134c-70.692 0-128-57.308-128-128s57.308-128 128-128 128 57.308 128 128c-.08 70.659-57.341 127.92-128 128z" fill="#fd7b11" data-original="#000000"></path><path d="M111.106 286.06v132.224H94.38a17.196 17.196 0 0 0-15.804 10.24 17.493 17.493 0 0 0 2.662 18.901l50.944 58.667a17.065 17.065 0 0 0 26.07.042l50.953-58.709a17.493 17.493 0 0 0 2.697-18.927 17.194 17.194 0 0 0-15.804-10.214h-16.725V286.06c71.407-17.287 118.616-85.229 109.912-158.182C280.579 54.927 218.709 0 145.239 0S9.899 54.927 1.194 127.879 39.699 268.773 111.106 286.06zm59.733 149.291h25.387l.085.853-51.2 58.718-50.944-58.718.213-.853h25.259a8.533 8.533 0 0 0 8.533-8.533V289.192a146.205 146.205 0 0 0 17.067 1.092 146.437 146.437 0 0 0 17.067-1.092v137.626a8.533 8.533 0 0 0 8.533 8.533zm-25.6-418.133c70.692 0 128 57.308 128 128s-57.308 128-128 128-128-57.308-128-128c.08-70.659 57.341-127.92 128-128z" fill="#fd7b11" data-original="#000000"></path><path d="M111.106 179.351a8.533 8.533 0 0 0-17.066 0c0 21.094 18.492 38.622 42.667 42.027v17.707a8.533 8.533 0 0 0 17.066 0v-17.707c24.175-3.413 42.667-20.932 42.667-42.027s-18.492-38.622-42.667-42.027V86.398c14.677 2.859 25.6 12.8 25.6 24.687a8.533 8.533 0 0 0 17.066 0c0-21.094-18.492-38.622-42.667-42.027V51.351a8.533 8.533 0 0 0-17.066 0v17.707c-24.175 3.413-42.667 20.932-42.667 42.027s18.492 38.622 42.667 42.027v50.927c-14.678-2.86-25.6-12.792-25.6-24.688zm68.266 0c0 11.895-10.923 21.828-25.6 24.687v-49.374c14.678 2.859 25.6 12.792 25.6 24.687zm-68.266-68.267c0-11.895 10.923-21.828 25.6-24.687v49.374c-14.678-2.858-25.6-12.791-25.6-24.687zM367.106 307.351a48.282 48.282 0 0 1 39.586 21.931 8.534 8.534 0 1 0 14.012-9.728 65.047 65.047 0 0 0-53.598-29.269c-30.316 1.18-56.351 21.916-64.282 51.2h-21.052c-4.713 0-8.533 3.82-8.533 8.533s3.82 8.533 8.533 8.533h17.51c-.273 2.807-.444 5.649-.444 8.533s.171 5.726.444 8.533h-17.51c-4.713 0-8.533 3.82-8.533 8.533s3.82 8.533 8.533 8.533h21.052c7.931 29.284 33.966 50.02 64.282 51.2a65.053 65.053 0 0 0 53.598-29.269 8.532 8.532 0 1 0-14.012-9.728 48.282 48.282 0 0 1-39.586 21.931 51.312 51.312 0 0 1-46.191-34.133h46.191c4.713 0 8.533-3.82 8.533-8.533s-3.82-8.533-8.533-8.533h-50.62a63.013 63.013 0 0 1 0-17.067h50.62c4.713 0 8.533-3.82 8.533-8.533s-3.82-8.533-8.533-8.533h-46.191c6.991-19.737 25.272-33.246 46.191-34.134z" fill="#fd7b11" data-original="#000000"></path></g></svg>