<svg xmlns="http://www.w3.org/2000/svg" version="1.1" xmlns:xlink="http://www.w3.org/1999/xlink" xmlns:svgjs="http://svgjs.com/svgjs" width="512" height="512" x="0" y="0" viewBox="0 0 64 64" style="enable-background:new 0 0 512 512" xml:space="preserve" class=""><g><path d="M49 34a1 1 0 0 1-.65-.241L41.63 28H25a5.006 5.006 0 0 1-5-5V7a5.006 5.006 0 0 1 5-5h28a5.006 5.006 0 0 1 5 5v16a5.006 5.006 0 0 1-5 5h-3v5a1 1 0 0 1-1 1ZM25 4a3 3 0 0 0-3 3v16a3 3 0 0 0 3 3h17a.994.994 0 0 1 .65.241L48 30.826V27a1 1 0 0 1 1-1h4a3 3 0 0 0 3-3V7a3 3 0 0 0-3-3Z" fill="#fd7b11" data-original="#000000" class=""></path><path d="M39 22a.99.99 0 1 1 .71-.29A1.05 1.05 0 0 1 39 22ZM39 19a1 1 0 0 1-1-1v-2.177a1.95 1.95 0 0 1 1.507-1.887 2 2 0 0 0 1.46-2.307 2.024 2.024 0 0 0-1.6-1.6A2 2 0 0 0 37 12a1 1 0 0 1-2 0 4 4 0 1 1 5.011 3.871L40 18a1 1 0 0 1-1 1ZM15 62a1 1 0 0 1-1-1v-5h-3a5.006 5.006 0 0 1-5-5V35a5.006 5.006 0 0 1 5-5h28a5.006 5.006 0 0 1 5 5v16a5.006 5.006 0 0 1-5 5H22.37l-6.719 5.759A1 1 0 0 1 15 62Zm-4-30a3 3 0 0 0-3 3v16a3 3 0 0 0 3 3h4a1 1 0 0 1 1 1v3.826l5.349-4.585A1 1 0 0 1 22 54h17a3 3 0 0 0 3-3V35a3 3 0 0 0-3-3Z" fill="#fd7b11" data-original="#000000" class=""></path><path d="M15 38h-2a1 1 0 0 1 0-2h2a1 1 0 0 1 0 2ZM37 38H19a1 1 0 0 1 0-2h18a1 1 0 0 1 0 2ZM15 42h-2a1 1 0 0 1 0-2h2a1 1 0 0 1 0 2ZM37 42H19a1 1 0 0 1 0-2h18a1 1 0 0 1 0 2ZM15 46h-2a1 1 0 0 1 0-2h2a1 1 0 0 1 0 2ZM37 46H19a1 1 0 0 1 0-2h18a1 1 0 0 1 0 2ZM15 50h-2a1 1 0 0 1 0-2h2a1 1 0 0 1 0 2ZM37 50H19a1 1 0 0 1 0-2h18a1 1 0 0 1 0 2Z" fill="#fd7b11" data-original="#000000" class=""></path></g></svg>