<svg xmlns="http://www.w3.org/2000/svg" version="1.1" xmlns:xlink="http://www.w3.org/1999/xlink" xmlns:svgjs="http://svgjs.com/svgjs" width="512" height="512" x="0" y="0" viewBox="0 0 32 32" style="enable-background:new 0 0 512 512" xml:space="preserve"><g><g fill-rule="nonzero"><path d="M28 15h-7c-2.194 0-4 1.806-4 4s1.806 4 4 4h4v3c0 .549-.451 1-1 1H8c-1.646 0-3-1.354-3-3V9c0-1.646 1.354-3 3-3h2c.549 0 1-.451 1-1s-.451-1-1-1H8C5.257 4 3 6.257 3 9v15c0 2.743 2.257 5 5 5h16c1.646 0 3-1.354 3-3v-3h1c.549 0 1-.451 1-1v-6c0-.549-.451-1-1-1zm-1 6h-6c-1.097 0-2-.903-2-2s.903-2 2-2h6z" fill="#fd7b11" data-original="#000000"></path><path d="M7.64 8.07C6.524 8.557 6.893 10 8 10h16c.549 0 1 .451 1 1v1c0 .549.451 1 1 1s1-.451 1-1v-1a3 3 0 0 0-3-3h-.32l-1.75-4.37a1.005 1.005 0 0 0-1.29-.56zM21.52 8h-8.13l7.05-2.71z" fill="#fd7b11" data-original="#000000"></path></g></g></svg>